<?xml version="1.0" encoding="utf-8"?>
<!-- Generator: Adobe Illustrator 25.4.1, SVG Export Plug-In . SVG Version: 6.00 Build 0)  -->
<svg version="1.1" xmlns="http://www.w3.org/2000/svg" xmlns:xlink="http://www.w3.org/1999/xlink" x="0px" y="0px"
	 viewBox="0 0 1080 1080" style="enable-background:new 0 0 1080 1080;" xml:space="preserve">
<style type="text/css">
	.st0{display:none;}
	.st1{display:inline;fill:#FFFFFF;}
	.st2{fill:url(#SVGID_1_);}
	.st3{clip-path:url(#SVGID_00000068664499015503917980000000767138354402837924_);}
	.st4{fill:#F4F4F4;}
</style>
<g id="Layer_1" class="st0">
	
		<image style="display:inline;overflow:visible;" width="1024" height="1024" xlink:href="F20B6A22.jpg"  transform="matrix(2.1094 0 0 2.1094 -540 -540.375)">
	</image>
</g>
<g id="Layer_3" class="st0">
	<path class="st1" d="M1131.9,1101.5L950.5,761c41.3-20.3,75.9-53.2,98.3-93.6c18.5-33.3,28.3-71.2,28.3-109.6
		c0-36.3-8.8-72.4-25.5-104.4c-12.3-23.6-28.6-44.8-48.3-62.8c-19.9-18.2-42.7-32.5-67.6-42.6c-13-5.2-30.3-11.4-49.4-12
		c-1.7-0.1-3.4-0.1-5.3-0.1c-3.3,0-6.6,0.1-9.7,0.2c-3,0.1-5.9,0.1-8.7,0.1H665.9c2.6-2.6,4.8-5.6,6.5-9l39.9-80.8
		c5.1-10.2,4.5-22.2-1.5-31.9c-6-9.7-16.5-15.5-27.9-15.5H2.8c-18.1,0-32.8,14.7-32.8,32.8v80.8c0,18.1,14.7,32.8,32.8,32.8h252.7
		L73.8,850.1c-3.6,10-2.1,21.3,4,30c6.1,8.7,16.2,13.9,26.9,13.9h105.2c13.8,0,26.2-8.7,30.9-21.7l145-403l44.6-123.9h76.2
		c-2.5,2.7-4.5,6-5.8,9.6l-36.3,100.7l-25.9,71.7c-3.2,8.7-1.8,18.5,3.5,26.1s14.1,12.2,23.4,12.2h114.2c12,0,22.8-7.6,26.9-18.9
		l23.2-64.3h166.3c6.3,0,12.7-0.1,18.9-0.1c6.1-0.1,12.4-0.1,18.5-0.1c5.9,0,11.1,0.1,15.9,0.2c7,0.2,17.6,6.1,28.4,15.8
		c9,8.1,16.2,18.4,20.7,29.6c3.8,9.3,5.8,19.7,5.8,29.9c0,30.5-17.8,58.8-45.2,72c-10.8,5.2-22.5,7.9-34.7,7.9H418.8
		c-12,0-22.8,7.6-26.9,18.9l-71.9,199.2c-3.2,8.7-1.8,18.5,3.5,26.1c5.3,7.6,14.1,12.2,23.4,12.2h114.2c12,0,22.8-7.6,26.9-18.9
		l32.9-91.1h259.8L955,1128c4.9,9.7,14.7,15.7,25.5,15.7c0,0,0,0,0,0l126.2-0.1c10.1,0,19.3-5.2,24.5-13.9
		S1136.7,1110.5,1131.9,1101.5z"/>
</g>
<g id="Layer_4">
	<linearGradient id="SVGID_1_" gradientUnits="userSpaceOnUse" x1="540" y1="1080" x2="540" y2="-9.094947e-13">
		<stop  offset="0" style="stop-color:#0F77F6"/>
		<stop  offset="0.9953" style="stop-color:#03B9FD"/>
	</linearGradient>
	<path class="st2" d="M916.7,1080H163.3C73.1,1080,0,1006.9,0,916.7V163.3C0,73.1,73.1,0,163.3,0h753.4
		c90.2,0,163.3,73.1,163.3,163.3v753.4C1080,1006.9,1006.9,1080,916.7,1080z"/>
</g>
<g id="Layer_2">
	<g>
		<defs>
			<path id="SVGID_00000175322901572193847830000010713679806667722424_" d="M916.7,1080H163.3C73.1,1080,0,1006.9,0,916.7V163.3
				C0,73.1,73.1,0,163.3,0h753.4c90.2,0,163.3,73.1,163.3,163.3v753.4C1080,1006.9,1006.9,1080,916.7,1080z"/>
		</defs>
		<clipPath id="SVGID_00000127041919730440607280000014557336056719054780_">
			<use xlink:href="#SVGID_00000175322901572193847830000010713679806667722424_"  style="overflow:visible;"/>
		</clipPath>
		<g style="clip-path:url(#SVGID_00000127041919730440607280000014557336056719054780_);">
			<g>
				<path class="st4" d="M923.2,755l-2.4-4.6c-2.5-4.6-0.4-10.3,4.4-12.4c44.3-18.8,80.9-52,104-93.7c17.1-30.8,26.8-66.2,26.8-104
					c0-35.7-8.7-69.4-24.2-99c-11.6-22.4-27.2-42.6-45.9-59.6c-18.8-17.1-40.6-30.9-64.1-40.4c-14.1-5.7-26.9-9.6-44-10.3
					c-8-0.3-16.2-0.4-24.2-0.4c-13.9,0-27.7,0-41.6,0c-17.4,0-34.7,0-52.1,0c-19.2,0-38.4,0-57.6,0c-19.4,0-38.8,0-58.2,0
					c-17.9,0-35.9,0-53.8,0c-14.8,0-29.6,0-44.4,0c-10,0-20.1,0-30.1,0c-3.6,0-7.2,0-10.8,0c-3.8,0-7.1,2.4-8.4,5.9l-37.8,104.8
					l-37,97.8c-2.1,5.8,2.2,11.9,8.4,11.9H549c3.8,0,7.1-2.4,8.4-5.9l37-97.9c1.3-3.5,4.6-5.9,8.4-5.9c10.4,0,20.8,0,31.2,0
					c23.8,0,47.6,0,71.5,0c26.2,0,52.5,0,78.7,0c18.6,0,37.4-0.6,56-0.1c15.5,0.4,31.7,11.7,42.9,21.8c11.8,10.6,21.1,23.8,27,38.5
					c5,12.3,7.5,25.6,7.5,38.9c0,41.3-24,76.9-58.9,93.7c-13.6,6.6-28.9,10.3-45.1,10.3H391.8c-3.8,0-7.1,2.4-8.4,5.9L345.6,755
					l-37,102.5c-2.1,5.8,2.2,11.9,8.4,11.9h118.8c3.8,0,7.1-2.4,8.4-5.9l37-102.6c1.3-3.5,4.6-5.9,8.4-5.9h286c3.4,0,6.4,1.9,8,4.9
					l184.7,364.4c1.5,3,4.6,4.9,8,4.9l131.3-0.2c6.7,0,11-7.2,7.9-13.1L923.2,755z"/>
				<path class="st4" d="M377.7,330.5l8.3-23.2c1.9-5.3,6.9-8.8,12.6-8.8h226.5c5.1,0,9.7-2.9,12-7.4l41.6-84
					c4.4-8.9-2.1-19.3-12-19.3H-41.1c-7.4,0-13.3,6-13.3,13.3v84c0,7.4,6,13.3,13.3,13.3h273.6c9.2,0,15.7,9.2,12.6,17.9L52.4,851.5
					c-3.1,8.7,3.3,17.9,12.6,17.9h109.4c5.6,0,10.6-3.5,12.6-8.8l150.9-419.3L377.7,330.5z"/>
			</g>
		</g>
	</g>
</g>
</svg>
